<?xml version="1.0"?>
<svg xmlns="http://www.w3.org/2000/svg" id="outline" viewBox="0 0 64 64" width="512" height="512"><path d="M35,2H29a1,1,0,0,0-1,1v8.051A11.01,11.01,0,0,0,18.051,21H17a1,1,0,0,0-1,1v4a1,1,0,0,0,1,1h1V45a37.808,37.808,0,0,0,2,12.153V61a1,1,0,0,0,1,1H43a1,1,0,0,0,1-1V57.153A37.808,37.808,0,0,0,46,45V44a1,1,0,0,0-2,0v1a35.33,35.33,0,0,1-.356,5.022,3.979,3.979,0,0,0-1.868-.944A3.962,3.962,0,0,0,42,47.812,3.983,3.983,0,0,0,35,45.2a3.945,3.945,0,0,0-6,0,3.97,3.97,0,0,0-6.775,3.883,3.969,3.969,0,0,0-1.869.944A35.33,35.33,0,0,1,20,45V27H44v9a1,1,0,0,0,2,0V27h1a1,1,0,0,0,1-1V22a1,1,0,0,0-1-1H45.949A11.01,11.01,0,0,0,36,11.051V3A1,1,0,0,0,35,2ZM26,55.618a4.051,4.051,0,0,0,.382.382h-.764A4.051,4.051,0,0,0,26,55.618ZM38.382,56h-.764A4.051,4.051,0,0,0,38,55.618,4.051,4.051,0,0,0,38.382,56ZM32,55.618a4.051,4.051,0,0,0,.382.382h-.764A4.051,4.051,0,0,0,32,55.618ZM35,51a2,2,0,1,1-2,2A2,2,0,0,1,35,51Zm-6,0a2,2,0,1,1-2,2A2,2,0,0,1,29,51Zm13,9H22V58H42Zm1-7a2,2,0,1,1-2-2A2,2,0,0,1,43,53Zm-5-7.188a2,2,0,1,1-2,2A2,2,0,0,1,38,45.812Zm-6,0a2,2,0,1,1-2,2A2,2,0,0,1,32,45.812Zm-6,0a2,2,0,1,1-2,2A2,2,0,0,1,26,45.812ZM23,51a2,2,0,1,1-2,2A2,2,0,0,1,23,51Zm7-38h4v8H30Zm4-9v7H30V4Zm-6,9.061V21H20.055A9.014,9.014,0,0,1,28,13.061ZM46,25H18V23H46Zm-2.055-4H36V13.061A9.014,9.014,0,0,1,43.945,21Z"/><circle cx="45" cy="40" r="1"/></svg>
